<?xml version="1.0" encoding="UTF-8"?>
<svg id="Layer_2" xmlns="http://www.w3.org/2000/svg"
    viewBox="200 200 686.74 686.74"
    width="200" height="200">
    <defs>
        <style>
            .cls-1 {
                fill: #7b71da;
            }

            .cls-1,
            .cls-2,
            .cls-3 {
                fill-rule: evenodd;
            }

            .cls-1,
            .cls-2,
            .cls-3,
            .cls-4 {
                stroke-width: 0px;
            }

            .cls-2 {
                fill: #d2acee;
            }

            .cls-3 {
                fill: #af9ee8;
            }

            .cls-4 {
                fill: inherit;
            }
        </style>
    </defs>
    <g id="Layer_1-2">
        <path class="cls-1"
            d="M745.36,622.84l32.82,122.51c6.02,22.46,29.32,35.91,51.78,29.9h0c22.46-6.02,35.91-29.32,29.9-51.78l-32.09-119.76c-14.3-58.51-67.07-101.92-129.98-101.92-36.95,0-70.4,14.98-94.61,39.2h0s-89.68,89.67-89.68,89.67c-16.44,16.44-16.44,43.35,0,59.79h0c16.44,16.44,43.35,16.45,59.79,0l89.68-89.68c8.91-8.91,21.23-14.43,34.83-14.43h0c22.79,0,41.97,15.48,47.58,36.51h0Z" />
        <path class="cls-1"
            d="M697.78,310.07c-43.83,0-79.35,35.53-79.35,79.36,0,43.83,35.53,79.35,79.36,79.35,43.82,0,79.35-35.53,79.35-79.35s-35.53-79.36-79.35-79.36Z" />
        <path class="cls-2"
            d="M388.96,310.07c-43.83,0-79.35,35.53-79.35,79.35s35.53,79.35,79.36,79.35,79.35-35.53,79.35-79.35-35.53-79.36-79.36-79.36h0Z" />
        <path class="cls-2"
            d="M341.39,622.84l-32.83,122.51c-6.02,22.46-29.32,35.91-51.78,29.89h0c-22.46-6.02-35.92-29.32-29.9-51.78l32.1-119.76c14.3-58.51,67.07-101.93,129.98-101.93,36.95,0,70.4,14.98,94.61,39.2h0s89.69,89.67,89.69,89.67c16.44,16.45,16.44,43.35,0,59.79h0c-16.45,16.44-43.35,16.45-59.79,0l-89.68-89.68c-8.91-8.91-21.23-14.42-34.83-14.42h0c-22.79,0-41.97,15.48-47.58,36.5Z" />
        <path class="cls-3"
            d="M573.27,630.64l-29.9-29.89-29.89,29.89c-16.44,16.44-16.44,43.35,0,59.79,16.44,16.44,43.35,16.45,59.79,0,16.44-16.44,16.44-43.35,0-59.79Z" />
    </g>
</svg>